<svg width="24" height="24" viewBox="0 0 34 34" xmlns="http://www.w3.org/2000/svg">
<path fill-rule="evenodd" clip-rule="evenodd" d="M13.1667 16.7379C16.8395 16.7379 19.7835 13.7558 19.7835 10.0355C19.7835 6.31518 16.8395 3.33301 13.1667 3.33301C9.49399 3.33301 6.54991 6.31518 6.54991 10.0355C6.54991 13.7558 9.49399 16.7379 13.1667 16.7379ZM13.1667 20.0199C7.77237 20.0199 3.16675 20.8825 3.16675 24.3282C3.16675 27.7727 7.74435 28.6663 13.1667 28.6663C18.5598 28.6663 23.1667 27.8038 23.1667 24.3579C23.1667 20.9122 18.5891 20.0199 13.1667 20.0199ZM27.0306 12.7835H28.6347C29.295 12.7835 29.8334 13.3294 29.8334 13.999C29.8334 14.6685 29.295 15.2145 28.6347 15.2145H27.0306V16.7842C27.0306 17.4538 26.4937 17.9997 25.8321 17.9997C25.1718 17.9997 24.6334 17.4538 24.6334 16.7842V15.2145H23.0321C22.3703 15.2145 21.8334 14.6685 21.8334 13.999C21.8334 13.3294 22.3703 12.7835 23.0321 12.7835H24.6334V11.2152C24.6334 10.5456 25.1718 9.99967 25.8321 9.99967C26.4937 9.99967 27.0306 10.5456 27.0306 11.2152V12.7835Z" fill="white"/>
</svg>
